HIERARCHY
ROOT hip
{
	OFFSET 0.000000 0.000000 0.000000 
	CHANNELS 6 Xposition Yposition Zposition Xrotation Zrotation Yrotation
	JOINT abdomen
	{
		OFFSET 0.000000 3.402643 0.000000 
		CHANNELS 3 Xrotation Zrotation Yrotation
		JOINT chest
		{
			OFFSET 0.000000 8.438565 -0.680529 
			CHANNELS 3 Xrotation Zrotation Yrotation
			JOINT neck
			{
				OFFSET 0.000000 10.207942 -0.272212 
				CHANNELS 3 Xrotation Zrotation Yrotation
				JOINT head
				{
					OFFSET 0.000000 3.130431 0.000000 
					CHANNELS 3 Xrotation Zrotation Yrotation
					End Site
					{
						OFFSET 0.000000 3.130435 0.000000 
					}
				}
			}
			JOINT lCollar
			{
				OFFSET 3.470700 6.669187 -0.816635 
				CHANNELS 3 Yrotation Zrotation Xrotation
				JOINT lShldr
				{
					OFFSET 3.198488 0.000000 0.000000 
					CHANNELS 3 Zrotation Yrotation Xrotation
					JOINT lForeArm
					{
						OFFSET 10.139888 0.000000 0.000000 
						CHANNELS 3 Yrotation Zrotation Xrotation
						JOINT lHand
						{
							OFFSET 8.370511 0.000000 0.000000 
							CHANNELS 3 Zrotation Yrotation Xrotation
							End Site
							{
								OFFSET 4.083176 0.000000 0.000000 
							}
						}
					}
				}
			}
			JOINT rCollar
			{
				OFFSET -3.470700 6.669187 -0.816635 
				CHANNELS 3 Yrotation Zrotation Xrotation
				JOINT rShldr
				{
					OFFSET -3.198488 0.000000 0.000000 
					CHANNELS 3 Zrotation Yrotation Xrotation
					JOINT rForeArm
					{
						OFFSET -10.139888 0.000000 0.000000 
						CHANNELS 3 Yrotation Zrotation Xrotation
						JOINT rHand
						{
							OFFSET -8.370511 0.000000 0.000000 
							CHANNELS 3 Zrotation Yrotation Xrotation
							End Site
							{
								OFFSET -4.083176 0.000000 0.000000 
							}
						}
					}
				}
			}
		}
	}
	JOINT lThigh
	{
		OFFSET 5.308129 -1.633274 1.361059 
		CHANNELS 3 Xrotation Zrotation Yrotation
		JOINT lShin
		{
			OFFSET -2.041588 -20.007561 0.000000 
			CHANNELS 3 Xrotation Zrotation Yrotation
			JOINT lFoot
			{
				OFFSET 0.000000 -19.190928 -1.224953 
				CHANNELS 3 Xrotation Yrotation Zrotation
				End Site
				{
					OFFSET 0.000000 -2.449906 4.627600 
				}
			}
		}
	}
	JOINT rThigh
	{
		OFFSET -5.308129 -1.633274 1.361059 
		CHANNELS 3 Xrotation Zrotation Yrotation
		JOINT rShin
		{
			OFFSET 2.041588 -20.007561 0.000000 
			CHANNELS 3 Xrotation Zrotation Yrotation
			JOINT rFoot
			{
				OFFSET 0.000000 -19.190928 -1.224953 
				CHANNELS 3 Xrotation Yrotation Zrotation
				End Site
				{
					OFFSET 0.000000 -2.449906 4.627600 
				}
			}
		}
	}
}
MOTION
Frames: 18
Frame Time: 0.033333
4.842495 44.412746 5.292185 -8.658390 -7.078230 -18.584600 5.820440 0.220815 -0.655550 3.596830 0.542754 -3.041650 0.157013 2.252260 4.381400 -18.453100 11.087900 -25.038700 12.598611 2.344566 -0.475384 -43.955898 23.712200 53.018600 -86.774200 -0.006396 24.941601 14.317200 45.967400 0.918256 -16.691742 0.935421 -1.252762 61.304798 -14.159900 47.069000 45.860802 -0.026759 -3.839870 -26.729900 -33.333099 -2.747730 -0.506852 0.809169 -0.367910 31.716759 -0.010783 14.958629 -9.040264 -0.418910 0.674265 -4.004188 -12.746498 -19.179869 17.415163 -0.043968 -11.579555 13.027784 0.035827 7.366514 
5.382281 44.075623 5.204752 -9.530410 -5.683390 -19.804300 6.132960 0.064171 -0.723029 4.230260 0.212574 -2.256380 -0.905011 1.068670 3.293270 -18.412001 8.358130 -25.044399 12.599878 -1.067416 -1.021047 -45.160198 21.986000 48.863201 -85.025703 -0.004296 28.824100 18.190800 44.664299 0.086613 -16.699341 -0.215137 -1.070400 61.567001 -13.201100 47.535400 49.480900 -0.030056 -2.410010 -32.369301 -30.257700 -2.799270 -1.019894 -1.245336 1.867941 32.987083 -0.019202 14.950442 -10.074306 -0.436714 0.393968 -4.863277 -14.703095 -16.187115 18.656034 -0.030881 -13.235793 10.852002 -0.028153 6.816851 
5.993626 43.363853 5.056331 -10.207300 -4.167330 -19.810499 6.347880 -0.093886 -1.034650 4.659660 -0.110985 -2.038220 -1.617940 -0.055431 3.023370 -18.431400 5.953500 -25.041599 11.982855 -5.159155 -1.669446 -44.513599 19.310600 45.784401 -82.944901 -0.007193 31.681101 21.840300 43.580101 -0.755645 -16.191648 -0.309483 -1.027362 60.117699 -11.999900 49.389301 53.861198 -0.027831 -1.621270 -35.934898 -26.686800 -2.848870 -3.021564 -3.159053 2.937309 36.663105 -0.033372 14.492582 -13.158447 -0.581950 0.463569 -6.903972 -17.204565 -14.541954 22.486109 -0.034016 -14.154523 6.433290 -0.133137 6.829575 
6.552474 42.641514 4.887094 -10.278500 -2.197310 -19.975500 6.279600 -0.495910 -1.315590 4.502820 -0.951706 -1.799430 -1.421650 -0.448006 2.794730 -18.526899 3.856260 -25.039499 10.962475 -10.646599 -2.578576 -41.315300 15.637600 43.483700 -79.583603 -0.002115 33.142799 22.649099 41.871399 -1.422880 -15.390339 1.986716 -1.348114 56.842300 -9.448500 53.223598 56.336102 -0.025500 -0.556511 -36.521900 -23.860500 -2.893240 -5.979272 -5.268082 4.310906 40.394070 -0.024457 13.481324 -15.588382 -0.785917 1.059377 -10.994711 -20.151758 -11.747693 28.015984 -0.039533 -15.049789 2.856149 -0.222182 7.443215 
7.097855 42.210808 4.802199 -11.516500 -0.693561 -20.224199 6.660540 -0.878798 -1.665010 5.263750 -1.751060 -1.748000 -2.603470 -0.589916 2.851520 -16.800800 1.822130 -25.038300 9.831009 -11.859618 -4.024225 -39.323002 10.725100 41.618599 -73.244102 -0.010438 32.457802 21.306601 40.228802 -1.676540 -13.818543 4.780091 -1.726190 54.080700 -5.227440 54.967400 55.498100 -0.025329 -1.863170 -33.679501 -20.296600 -2.936700 -6.796648 -7.665004 5.314444 42.285545 -0.033672 13.596578 -16.295902 -0.953739 1.836667 -13.580787 -22.658566 -8.269116 32.335972 -0.031557 -15.040768 2.428323 -0.243819 7.859461 
7.636246 41.863785 4.682885 -13.439600 -0.120956 -20.323400 7.285550 -0.937617 -1.703740 6.503290 -1.908720 -1.291810 -4.466130 -0.920935 2.236030 -13.489100 -0.275233 -21.465200 8.165298 -11.912784 -4.532198 -40.495499 5.436380 41.988499 -64.473701 -0.005950 30.564100 19.474899 41.671001 -0.943751 -12.024497 6.199924 -1.846591 53.089100 -1.176450 54.959702 53.113998 -0.026096 -3.990640 -28.106001 -20.240700 -2.933070 -6.214739 -9.436785 5.838659 43.601154 -0.025692 13.744634 -16.993778 -1.090054 2.245706 -14.870855 -24.155842 -4.999183 35.952663 -0.030590 -15.050991 2.787590 -0.221325 7.589886 
8.140085 41.446449 4.453277 -14.971600 0.192402 -19.673300 7.744540 -0.761725 -1.685200 7.431190 -1.586310 -1.050610 -5.860660 -1.457880 1.858190 -10.478000 -2.767090 -17.619499 6.459078 -11.957086 -4.368059 -43.023201 0.472086 44.817299 -54.650501 -0.008739 28.163300 16.936701 44.054501 0.083972 -9.950972 6.676313 -1.811114 53.427399 1.501330 54.958099 50.720901 -0.025663 -7.052020 -26.400200 -22.324699 -2.906790 -6.324403 -10.541550 5.949787 45.705902 -0.024931 13.345036 -18.161892 -1.192643 2.484551 -16.147903 -24.768099 -1.662348 39.656693 -0.029641 -15.044412 3.061859 -0.226498 6.940978 
8.499241 41.025520 4.202629 -15.818700 0.150605 -17.545200 8.115660 -0.449344 -1.706490 8.203390 -0.959480 -1.261580 -7.042330 -1.885220 2.165630 -8.401680 -3.553180 -15.499100 4.552723 -11.994390 -3.884321 -45.623199 -3.786120 49.616001 -45.315601 -0.008147 26.302601 14.598400 45.676998 0.818341 -8.408569 7.806856 -1.916169 54.162201 3.206720 54.964001 47.767700 -0.026644 -4.989920 -29.911800 -23.843901 -2.890020 -7.232989 -10.581656 5.599466 48.468033 -0.024993 12.533203 -19.366053 -1.550525 3.801053 -16.287525 -24.343208 0.434263 42.228081 -0.021991 -15.052470 3.482202 -0.188479 6.387914 
8.743442 40.760849 4.004902 -16.744600 -0.512380 -14.124500 8.691910 0.018325 -1.894670 9.357040 0.022498 -2.121740 -8.813660 -2.408020 3.386260 -6.567240 -1.719480 -14.945000 2.556074 -12.019627 -3.285202 -47.852501 -6.589030 54.977299 -38.487900 -0.015787 24.808599 12.367700 46.772701 1.318860 -7.370359 9.182630 -2.080309 55.090401 4.580150 54.962299 44.890202 -0.028600 -0.519219 -36.455700 -23.703899 -2.884250 -7.367574 -10.022937 4.068553 50.639614 -0.026061 12.098162 -20.206865 -2.087159 5.899206 -14.070640 -23.542086 -0.556208 42.873180 -0.021830 -15.052494 3.719123 -0.177833 5.654603 
8.914722 40.641434 3.796863 -17.733801 -1.476710 -11.030900 9.385390 0.582575 -2.268940 10.726300 1.218770 -3.488880 -11.002500 -3.053610 5.381110 -5.536640 0.899075 -14.456300 1.697421 -12.026125 -2.790387 -50.058601 -7.740430 54.975300 -35.237202 -0.016238 24.459999 11.934200 47.592800 1.554970 -6.407716 9.560162 -2.085992 56.923401 5.732660 54.963200 44.085098 -0.029390 4.092290 -42.671501 -23.924200 -2.891460 -7.089308 -9.012046 2.627997 52.214706 -0.026852 11.418304 -20.630682 -2.450130 7.341813 -11.611214 -22.782110 -3.431623 43.019611 -0.041385 -15.053254 3.129947 -0.158287 4.224429 
9.017277 40.574593 3.549741 -17.832001 -2.108230 -9.163140 9.766440 1.028790 -2.789040 11.461800 2.195000 -4.984060 -12.271900 -3.670060 7.624110 -5.628960 2.837980 -13.299800 2.336423 -12.021541 -2.314322 -52.383598 -7.210550 54.975300 -35.098801 -0.017494 26.744301 16.094400 48.027302 1.389130 -5.762530 8.871678 -1.920980 59.304199 6.360760 54.966099 46.151299 -0.027083 8.351230 -48.201199 -25.057899 -2.867260 -7.797737 -7.876133 2.214060 53.371738 -0.035896 10.306202 -20.764652 -2.564224 7.778195 -11.589715 -22.406681 -5.807466 44.934925 -0.031197 -15.040109 1.695131 -0.151120 3.289542 
8.918790 40.698624 3.347408 -18.017500 -2.786910 -8.347670 10.059600 1.290150 -3.190900 12.021700 2.774740 -6.130630 -13.249800 -3.840200 9.335800 -4.469160 4.094610 -12.297600 3.280627 -8.774884 -1.774292 -54.573399 -4.718400 54.980202 -37.773300 -0.011611 31.745899 24.991199 48.015301 1.674760 -5.463631 8.010794 -1.756498 61.253502 6.238510 52.235500 49.831200 -0.031766 13.056800 -54.252701 -27.685499 -2.832680 -7.738863 -6.450469 2.336697 53.421383 -0.036148 9.127384 -20.491991 -2.458421 7.381086 -12.116762 -21.702721 -7.768263 48.708199 -0.030108 -15.049540 -0.576117 -0.116237 3.230564 
8.694147 41.129547 3.219826 -18.260599 -3.684640 -8.971770 10.254800 1.485850 -3.123640 12.392800 3.215050 -6.363110 -13.830600 -3.928140 9.691750 -1.533450 4.042630 -10.742300 4.352183 -6.261334 -1.408839 -55.134800 -0.977944 49.021999 -42.008900 -0.011190 37.762001 34.981201 47.969002 3.051050 -5.695361 7.648058 -1.720291 61.876598 6.040410 45.189301 53.426399 -0.025530 18.833401 -59.556499 -28.087299 -2.822260 -6.400198 -5.064297 2.655865 51.587372 -0.036275 8.497660 -19.463970 -2.120959 6.369785 -12.633740 -20.207388 -9.944513 53.019089 -0.031674 -15.046895 -2.915694 -0.092482 3.115478 
8.504295 41.791443 3.146222 -17.567101 -3.998510 -11.077900 10.079000 1.603660 -3.016880 12.049000 3.433960 -6.020540 -13.351800 -4.523230 9.181730 1.649600 1.583090 -8.071770 6.376785 -6.318408 -1.541411 -53.019501 2.742170 40.526501 -46.368099 -0.008830 43.811600 42.283901 47.918301 4.035240 -6.235680 7.533805 -1.728757 61.088600 6.980340 37.435001 56.722500 -0.024714 23.347300 -62.519100 -26.813900 -2.849780 -4.940165 -4.783510 3.177353 47.633114 -0.026272 8.855533 -17.448807 -1.686698 5.179047 -14.244778 -19.279778 -12.425344 57.094910 -0.030673 -15.038739 -4.006146 0.021153 1.702446 
8.233954 42.632076 3.133864 -16.437901 -3.809780 -14.343100 9.639410 1.546420 -2.782180 11.195700 3.187160 -4.857460 -12.045900 -5.362700 7.473880 4.391340 -2.486900 -4.186340 8.532566 -7.601480 -1.880261 -49.422100 6.229030 29.703199 -50.741100 -0.010816 49.519798 46.559601 47.918201 4.102000 -7.158189 7.316206 -1.751002 59.187698 9.249630 30.695499 59.166901 -0.031371 26.507799 -64.952400 -27.429100 -2.831670 -2.995153 -4.908359 4.693991 41.780849 -0.034825 9.159483 -14.448961 -1.161950 3.573791 -15.838826 -18.464581 -13.615732 59.529346 -0.020015 -15.044753 -2.830276 0.096680 0.028873 
7.906589 43.443501 3.097647 -14.091500 -2.729260 -18.520599 8.604010 1.218400 -2.086970 9.179900 2.415870 -2.637470 -8.816590 -6.007750 4.016490 4.986890 -6.866440 0.396290 9.758444 -8.943136 -2.188120 -45.731602 9.415220 16.739901 -55.925400 -0.013442 54.002998 50.145500 47.886700 4.869260 -8.752526 7.268804 -1.833575 56.084900 12.385100 24.284700 60.959702 -0.032172 28.620701 -66.747597 -28.657801 -2.811550 -2.514853 -4.985008 7.733345 36.023418 -0.034791 7.944358 -10.630559 -0.431616 0.286729 -18.572580 -17.868618 -12.936747 60.330467 -0.029724 -15.037638 -0.964133 0.069936 -0.748176 
7.524111 44.230881 2.999980 -11.603300 -0.631193 -22.939100 7.334220 0.628193 -1.136360 6.679160 1.229870 -0.039510 -4.649860 -6.194280 -0.105934 4.282590 -11.707000 4.873950 9.948129 -10.334008 -2.455153 -41.854801 12.415200 2.212720 -62.571602 -0.010913 56.124100 50.994099 47.894699 4.583390 -10.306926 7.207284 -1.916178 51.834599 16.230600 17.001200 63.000500 -0.028370 29.843599 -67.443001 -29.145201 -2.805530 -2.788877 -5.259851 10.749532 30.977329 -0.033679 4.693732 -6.604426 0.186154 -4.326674 -21.122545 -17.567776 -10.933539 58.935757 -0.031849 -13.932039 -0.802972 0.052846 -0.597403 
7.078037 45.019501 2.821419 -10.426800 1.173350 -26.107700 6.396570 0.114526 -0.459636 4.805700 0.215181 1.711540 -1.598410 -6.052830 -2.867370 4.014770 -15.021800 7.917200 9.944322 -11.402991 -2.632521 -37.477299 14.296500 -11.057600 -68.720596 -0.012768 57.205502 49.199001 48.006401 2.259750 -11.255679 6.533173 -1.867544 47.072300 20.706900 9.733710 64.922699 -0.030633 29.540100 -67.340599 -28.752199 -2.817550 -1.577134 -5.460986 8.845380 26.184235 -0.033863 -0.959473 -2.779599 0.452388 -8.721835 -20.884279 -17.163147 -9.225031 54.621117 -0.031060 -11.716811 -1.336121 0.050246 0.061688 
